<svg width="49" height="49" viewBox="0 0 49 49" fill="none" xmlns="http://www.w3.org/2000/svg">
<g clip-path="url(#clip0_190_456)">
<path d="M30.6064 48.5001V45.7554C30.6064 45.1685 30.8395 44.6057 31.2545 44.1907C31.6695 43.7757 32.2323 43.5426 32.8192 43.5426H38.9285C39.2434 43.5341 39.5535 43.4636 39.841 43.335C40.1285 43.2064 40.3878 43.0222 40.6039 42.7932C40.8201 42.5641 40.9889 42.2946 41.1007 42.0001C41.2124 41.7057 41.2649 41.392 41.2552 41.0772V41.1226C41.2553 41.0637 41.2554 37.9656 41.2555 37.8539C41.2715 37.4308 41.4334 37.0262 41.7138 36.7089C42.1772 36.1748 42.4304 35.4902 42.4261 34.7831L42.4193 34.1161C42.4184 33.91 42.4802 33.7086 42.5965 33.5384C42.7128 33.3683 42.878 33.2376 43.0703 33.1636H44.1375C44.3353 33.1685 44.5317 33.1302 44.7132 33.0515C44.8947 32.9728 45.0569 32.8555 45.1885 32.7078C45.3503 32.5179 45.4542 32.2855 45.4878 32.0383C45.5215 31.7911 45.4835 31.5394 45.3784 31.3132C44.2153 28.8731 43.2009 26.365 42.3407 23.8025C42.1882 23.3153 42.1149 22.8069 42.1237 22.2965L42.1225 17.3017C42.1222 15.9617 41.9363 14.6282 41.5702 13.3392L41.5639 13.3171C40.9821 11.1959 39.9072 9.24223 38.4269 7.61532C38.1077 7.27111 37.7724 6.9366 37.4212 6.61181C37.2009 6.39973 36.9765 6.1909 36.7437 5.98904C33.4021 3.08451 29.121 1.48969 24.6935 1.50006C20.1186 1.48859 15.6836 3.07648 12.1555 5.98906C9.11878 8.60973 7.07108 12.1913 6.35325 16.1378C5.63541 20.0843 6.29074 24.1575 8.21016 27.6797C10.4446 32.0061 12.1943 39.1215 12.6397 46.5001V48.5001" stroke="#16ADE1" stroke-width="2" stroke-miterlimit="10"/>
<path d="M28.4165 12.5H31.9165" stroke="#16ADE1" stroke-width="2" stroke-linecap="round" stroke-linejoin="round"/>
<path d="M28.4165 26.5H31.9165" stroke="#16ADE1" stroke-width="2" stroke-linecap="round" stroke-linejoin="round"/>
<path d="M30.1665 12.5V26.5" stroke="#16ADE1" stroke-width="2" stroke-linecap="round" stroke-linejoin="round"/>
<path d="M24.4922 26.5L20.4042 12.5H19.7262L15.6592 26.5" stroke="#16ADE1" stroke-width="2" stroke-linecap="round" stroke-linejoin="round"/>
<path d="M17.354 21.6333H22.7761" stroke="#16ADE1" stroke-width="2" stroke-linecap="round" stroke-linejoin="round"/>
</g>
<defs>
<clipPath id="clip0_190_456">
<rect width="48" height="48" fill="white" transform="translate(0.5 0.5)"/>
</clipPath>
</defs>
</svg>
