<svg width="24" height="24" viewBox="0 0 24 24" fill="none" xmlns="http://www.w3.org/2000/svg">
<g clip-path="url(#clip0_41_188)">
<path d="M12.1312 23.775C5.64366 23.8031 0.309288 18.4031 0.463975 11.8078C0.609288 5.52656 5.81241 0.337498 12.2812 0.407811C18.689 0.478123 23.9905 5.8125 23.8171 12.4172C23.653 18.6703 18.4921 23.8078 12.1312 23.775ZM1.88429 12.1078C1.93585 17.9812 6.69835 22.5047 12.3233 22.4062C17.7702 22.3078 22.3874 17.8687 22.3874 12.0937C22.3874 6.22031 17.5874 1.67812 11.9437 1.78594C6.49679 1.88437 1.92179 6.3375 1.88429 12.1078Z" fill="white"/>
<path d="M9.6936 20.3156C9.6936 17.5547 9.6936 14.8172 9.6936 12.0516C9.08423 12.0516 8.4936 12.0516 7.88892 12.0516C7.88892 11.1141 7.88892 10.2047 7.88892 9.26719C7.9686 9.2625 8.04829 9.25312 8.13267 9.25312C8.5686 9.25312 9.00923 9.24375 9.44517 9.25781C9.63735 9.2625 9.70298 9.21094 9.69829 9.01406C9.68892 8.30156 9.68892 7.59375 9.6936 6.88125C9.69829 6.07969 9.92329 5.35313 10.4952 4.77188C11.0483 4.20938 11.7561 3.90469 12.5249 3.85781C13.7624 3.7875 15.0045 3.79688 16.2467 3.77344C16.2608 3.77344 16.2749 3.7875 16.303 3.80156C16.303 4.74375 16.303 5.69063 16.303 6.66094C16.2139 6.66563 16.1295 6.67031 16.0499 6.67031C15.4874 6.67031 14.9249 6.67031 14.3624 6.67031C13.7952 6.675 13.4624 7.0125 13.4624 7.57031C13.4624 8.1 13.4624 8.63438 13.467 9.16406C13.467 9.17812 13.4764 9.19219 13.4905 9.24375C14.4186 9.24375 15.3561 9.24375 16.3405 9.24375C16.2186 10.1953 16.1061 11.1047 15.9842 12.0469C15.1358 12.0469 14.3061 12.0469 13.453 12.0469C13.453 14.8219 13.453 17.5688 13.453 20.325C12.192 20.3156 10.9639 20.3156 9.6936 20.3156Z" fill="white"/>
</g>
<defs>
<clipPath id="clip0_41_188">
<rect width="24" height="24" fill="white"/>
</clipPath>
</defs>
</svg>
