<svg width="228" height="190" viewBox="0 0 228 190" fill="none" xmlns="http://www.w3.org/2000/svg">
<g clip-path="url(#clip0_190_440)">
<path d="M189.225 182.168H38.5464V189.225H189.225V182.168Z" fill="#16ADE1" stroke="#16ADE1" stroke-width="0.502144"/>
<path d="M189.265 189.265V83.8608H182.128V189.265H189.265Z" fill="#16ADE1" stroke="#16ADE1" stroke-width="0.422347"/>
<path d="M45.6431 189.265L45.6431 83.8608H38.5064L38.5064 189.265H45.6431Z" fill="#16ADE1" stroke="#16ADE1" stroke-width="0.422347"/>
<path d="M38.1677 83.7773H0.627441V91.0814H38.1677V83.7773Z" fill="#16ADE1" stroke="#16ADE1" stroke-width="0.254992"/>
<path d="M227.144 83.7773H189.604V91.0814H227.144V83.7773Z" fill="#16ADE1" stroke="#16ADE1" stroke-width="0.254992"/>
<path d="M226.908 82.7165L114.413 0.928711L111.313 9.0324L223.807 90.8202L226.908 82.7165Z" fill="#16ADE1" stroke="#16ADE1" stroke-width="0.534935"/>
<path d="M0.815099 82.695L113.31 0.907227L116.41 9.0109L3.91525 90.7987L0.815099 82.695Z" fill="#16ADE1" stroke="#16ADE1" stroke-width="0.534935"/>
<path d="M120.103 111.958C116.496 108.4 110.688 108.44 107.13 112.047C103.573 115.654 103.613 121.462 107.22 125.019C110.827 128.577 116.634 128.537 120.192 124.93C123.75 121.323 123.71 115.515 120.103 111.958Z" fill="#16ADE1" stroke="#16ADE1" stroke-width="0.551407"/>
<path d="M96.5531 101.059C98.8131 98.7676 101.504 96.9456 104.47 95.6977C107.437 94.4498 110.621 93.8006 113.839 93.7874C117.057 93.7743 120.246 94.3974 123.223 95.6209C126.2 96.8445 128.905 98.6444 131.184 100.917" stroke="#16ADE1" stroke-width="7.85348"/>
<path d="M83.0318 89.3667C86.9352 85.4091 91.5805 82.2598 96.702 80.0989C101.823 77.938 107.321 76.8079 112.879 76.7732C118.438 76.7385 123.949 77.7999 129.097 79.8966C134.245 81.9934 138.929 85.0844 142.882 88.9929" stroke="#16ADE1" stroke-width="7.55906"/>
<path d="M70.7599 77.3896C76.2568 71.8165 82.8041 67.3886 90.0233 64.3621C97.2424 61.3356 104.99 59.7706 112.818 59.7576C120.646 59.7447 128.398 61.284 135.628 64.2865C142.857 67.2889 149.419 71.6951 154.934 77.2499" stroke="#16ADE1" stroke-width="7.55906"/>
</g>
<defs>
<clipPath id="clip0_190_440">
<rect width="226.772" height="188.976" fill="white" transform="translate(0.5 0.5)"/>
</clipPath>
</defs>
</svg>
