<svg width="335" height="371" viewBox="0 0 335 371" fill="none" xmlns="http://www.w3.org/2000/svg">
<g clip-path="url(#clip0_190_513)">
<path d="M35.1298 273.855C35.1305 273.852 35.1311 273.85 35.1318 273.848C35.1329 273.844 35.1342 273.84 35.1355 273.836C35.1368 273.833 35.138 273.829 35.1393 273.825C35.4043 273.08 35.6069 272.307 35.7487 271.513C35.7536 271.484 35.7593 271.453 35.7642 271.427C35.7646 271.423 35.7657 271.422 35.7661 271.419C35.9047 270.612 35.9809 269.783 35.981 268.937C35.981 267.93 35.8783 266.947 35.6841 265.997C35.4899 265.048 35.2034 264.133 34.8345 263.261C34.4656 262.389 34.0148 261.558 33.4907 260.782C32.9667 260.007 32.3711 259.284 31.7114 258.624C31.0517 257.965 30.329 257.367 29.5532 256.843C28.7774 256.319 27.947 255.868 27.0747 255.499C26.2024 255.13 25.2877 254.844 24.3384 254.65C23.3891 254.455 22.4057 254.353 21.3989 254.353C20.9154 254.353 20.4387 254.377 19.9673 254.423L20.9829 100.979L168.372 17.2021L314.64 102.922L313.52 272.418L181.05 347.717C179.211 341.768 173.669 337.445 167.116 337.445C160.285 337.445 154.552 342.142 152.968 348.482L32.7802 278.049C33.2806 277.424 33.7302 276.759 34.1239 276.056C34.5163 275.357 34.8556 274.62 35.1298 273.855ZM35.1298 273.855C35.1294 273.856 35.1301 273.854 35.1298 273.855Z" stroke="#16ADE1" stroke-width="7.55906" stroke-linecap="round"/>
<path d="M169.341 33.9803C177.395 33.9803 183.924 27.4514 183.924 19.3976C183.924 11.3438 177.395 4.81494 169.341 4.81494C161.287 4.81494 154.758 11.3438 154.758 19.3976C154.758 27.4514 161.287 33.9803 169.341 33.9803Z" fill="#16ADE1" stroke="#16ADE1" stroke-width="8.62991" stroke-linecap="round"/>
<path d="M315.28 116.52C323.334 116.52 329.863 109.991 329.863 101.937C329.863 93.8834 323.334 87.3545 315.28 87.3545C307.227 87.3545 300.698 93.8834 300.698 101.937C300.698 109.991 307.227 116.52 315.28 116.52Z" fill="#16ADE1" stroke="#16ADE1" stroke-width="8.62991" stroke-linecap="round"/>
<path d="M314.456 282.938C322.51 282.938 329.039 276.409 329.039 268.356C329.039 260.302 322.51 253.773 314.456 253.773C306.402 253.773 299.874 260.302 299.874 268.356C299.874 276.409 306.402 282.938 314.456 282.938Z" fill="#16ADE1" stroke="#16ADE1" stroke-width="8.62991" stroke-linecap="round"/>
<path d="M167.116 337.444C165.201 337.444 163.304 337.821 161.535 338.554C159.766 339.287 158.158 340.361 156.804 341.715C155.449 343.069 154.375 344.676 153.642 346.446C152.909 348.215 152.532 350.111 152.532 352.026C152.532 353.942 152.909 355.838 153.642 357.608C154.374 359.377 155.449 360.985 156.803 362.339C158.157 363.693 159.765 364.768 161.534 365.501C163.304 366.233 165.2 366.611 167.116 366.61C169.031 366.61 170.927 366.233 172.696 365.5C174.466 364.767 176.073 363.693 177.427 362.338C178.781 360.984 179.855 359.377 180.588 357.607C181.321 355.838 181.698 353.941 181.698 352.026C181.698 348.159 180.161 344.45 177.427 341.716C174.692 338.981 170.983 337.445 167.116 337.444Z" fill="#16ADE1" stroke="#16ADE1" stroke-width="8.62991" stroke-linecap="round"/>
<path d="M19.3989 254.353C17.4837 254.352 15.5872 254.729 13.8177 255.462C12.0482 256.195 10.4404 257.269 9.08611 258.624C7.73183 259.978 6.65759 261.586 5.92473 263.355C5.19188 265.125 4.81477 267.021 4.81494 268.937C4.81503 270.852 5.19231 272.748 5.92528 274.517C6.65825 276.286 7.73255 277.894 9.08681 279.248C10.4411 280.602 12.0488 281.676 13.8181 282.409C15.5875 283.142 17.4839 283.519 19.3989 283.519C23.2663 283.518 26.9752 281.982 29.7098 279.247C32.4444 276.513 33.9808 272.804 33.981 268.937C33.9811 267.021 33.6041 265.125 32.8713 263.356C32.1386 261.586 31.0646 259.979 29.7105 258.624C28.3564 257.27 26.7488 256.196 24.9796 255.463C23.2103 254.73 21.314 254.353 19.3989 254.353Z" fill="#16ADE1" stroke="#16ADE1" stroke-width="8.62991" stroke-linecap="round"/>
<path d="M20.3356 115.625C28.3894 115.625 34.9183 109.096 34.9183 101.042C34.9183 92.9883 28.3894 86.4595 20.3356 86.4595C12.2818 86.4595 5.75293 92.9883 5.75293 101.042C5.75293 109.096 12.2818 115.625 20.3356 115.625Z" fill="#16ADE1" stroke="#16ADE1" stroke-width="8.62991" stroke-linecap="round"/>
<path d="M211.416 169.815H70.409C69.8773 169.815 69.4463 172.301 69.4463 175.367V250.503C69.4463 253.569 69.8773 256.055 70.409 256.055H211.416C211.948 256.055 212.379 253.569 212.379 250.503V175.367C212.379 172.301 211.948 169.815 211.416 169.815Z" fill="#16ADE1" fill-opacity="0.0352941" stroke="#16ADE1" stroke-width="8.24821" stroke-linecap="round"/>
<path d="M156.147 187.586H132.98C132.68 187.586 132.437 189.905 132.437 192.767V206.658C132.437 209.519 132.68 211.839 132.98 211.839H156.147C156.447 211.839 156.69 209.519 156.69 206.658V192.767C156.69 189.905 156.447 187.586 156.147 187.586Z" fill="#16ADE1" fill-opacity="0.0352941" stroke="#16ADE1" stroke-width="5.98345" stroke-linecap="round"/>
<path d="M196.351 187.716H173.501C173.186 187.716 172.931 190.12 172.931 193.085V206.339C172.931 209.304 173.186 211.708 173.501 211.708H196.351C196.667 211.708 196.922 209.304 196.922 206.339V193.085C196.922 190.12 196.667 187.716 196.351 187.716Z" fill="#16ADE1" fill-opacity="0.0352941" stroke="#16ADE1" stroke-width="6.24472" stroke-linecap="round"/>
<path d="M276.455 254.985H216.122C215.564 254.985 215.112 255.241 215.112 255.556C215.112 255.872 215.564 256.128 216.122 256.128H276.455C277.013 256.128 277.465 255.872 277.465 255.556C277.465 255.241 277.013 254.985 276.455 254.985Z" fill="#16ADE1" fill-opacity="0.0352941" stroke="#16ADE1" stroke-width="8.30646" stroke-linecap="round"/>
<path d="M203.348 165.427L212.385 106.464C212.468 105.919 212.778 105.537 213.076 105.612C213.374 105.686 213.549 106.189 213.465 106.734L204.428 165.696C204.345 166.241 204.035 166.623 203.737 166.548C203.439 166.474 203.265 165.972 203.348 165.427Z" fill="#16ADE1" fill-opacity="0.0352941" stroke="#16ADE1" stroke-width="8.15376" stroke-linecap="round"/>
<path d="M259.418 104.805H214.31C213.893 104.805 213.555 105.079 213.555 105.416C213.555 105.754 213.893 106.028 214.31 106.028H259.418C259.835 106.028 260.173 105.754 260.173 105.416C260.173 105.079 259.835 104.805 259.418 104.805Z" fill="#16ADE1" fill-opacity="0.0352941" stroke="#16ADE1" stroke-width="7.43316" stroke-linecap="round"/>
<path d="M260.526 105.583L259.082 105.859C258.948 105.885 258.94 106.808 259.064 107.923L275.3 253.8C275.424 254.914 275.633 255.797 275.766 255.771L277.21 255.496C277.344 255.47 277.352 254.546 277.228 253.432L260.993 107.554C260.869 106.44 260.66 105.558 260.526 105.583Z" fill="#16ADE1" fill-opacity="0.0352941" stroke="#16ADE1" stroke-width="8.73695" stroke-linecap="round"/>
<path d="M205.475 143.61H265.622C265.798 143.61 265.941 143.61 265.941 143.61V143.61C265.941 143.61 265.798 143.61 265.622 143.61H205.475C205.298 143.61 205.156 143.61 205.156 143.61V143.61C205.156 143.61 205.298 143.61 205.475 143.61Z" stroke="#16ADE1" stroke-width="9.58159" stroke-linecap="round"/>
<path d="M211.097 125.225H264.596C264.752 125.225 264.879 125.225 264.879 125.225C264.879 125.225 264.752 125.225 264.596 125.225H211.097C210.94 125.225 210.813 125.225 210.813 125.225C210.813 125.225 210.94 125.225 211.097 125.225Z" stroke="#16ADE1" stroke-width="9.0373" stroke-linecap="round"/>
<path d="M143.373 129.166C145.883 129.166 147.918 127.131 147.918 124.62C147.918 122.11 145.883 120.075 143.373 120.075C140.862 120.075 138.827 122.11 138.827 124.62C138.827 127.131 140.862 129.166 143.373 129.166Z" fill="#16ADE1" fill-opacity="0.0352941" stroke="#16ADE1" stroke-width="9.05197" stroke-linecap="round"/>
<path d="M122.109 126.705C122.109 123.571 122.733 120.468 123.943 117.578C125.153 114.687 126.927 112.066 129.16 109.867C131.393 107.668 134.04 105.936 136.949 104.77C139.858 103.604 142.97 103.029 146.104 103.077" fill="#16ADE1" fill-opacity="0.0352941"/>
<path d="M122.109 126.705C122.109 123.571 122.733 120.468 123.943 117.578C125.153 114.687 126.927 112.066 129.16 109.867C131.393 107.668 134.04 105.936 136.949 104.77C139.858 103.604 142.97 103.029 146.104 103.077" stroke="#16ADE1" stroke-width="7.55906" stroke-linecap="round"/>
<path d="M104.127 125.927C104.127 120.513 105.243 115.158 107.405 110.195C109.567 105.232 112.729 100.768 116.694 97.0825C120.659 93.3964 125.341 90.5674 130.448 88.7719C135.555 86.9763 140.977 86.2529 146.376 86.6468" fill="#16ADE1" fill-opacity="0.0352941"/>
<path d="M104.127 125.927C104.127 120.513 105.243 115.158 107.405 110.195C109.567 105.232 112.729 100.768 116.694 97.0825C120.659 93.3964 125.341 90.5674 130.448 88.7719C135.555 86.9763 140.977 86.2529 146.376 86.6468" stroke="#16ADE1" stroke-width="7.55906" stroke-linecap="round"/>
<path d="M86.4498 125.03C86.4498 116.742 88.3183 108.56 91.9164 101.094C95.5145 93.6272 100.75 87.0678 107.232 81.9036C113.715 76.7393 121.279 73.103 129.361 71.265C137.443 69.427 145.835 69.4347 153.914 71.2875" fill="#16ADE1" fill-opacity="0.0352941"/>
<path d="M86.4498 125.03C86.4498 116.742 88.3183 108.56 91.9164 101.094C95.5145 93.6272 100.75 87.0678 107.232 81.9036C113.715 76.7393 121.279 73.103 129.361 71.265C137.443 69.427 145.835 69.4347 153.914 71.2875" stroke="#16ADE1" stroke-width="7.55906" stroke-linecap="round"/>
</g>
<defs>
<clipPath id="clip0_190_513">
<rect width="333.678" height="370.425" fill="white" transform="translate(0.5 0.5)"/>
</clipPath>
</defs>
</svg>
