<svg width="64" height="64" viewBox="0 0 64 64" fill="none" xmlns="http://www.w3.org/2000/svg">
<path d="M52.708 20.849C52.708 8.185 44.584 0 32 0C19.416 0 11.292 8.185 11.292 20.849C11.292 31.405 27.603 52.596 29.467 54.967L31.745 57.895C22.203 57.92 14.508 59.275 14.508 60.946C14.508 62.632 22.344 63.999 32.01 63.999C41.676 63.999 49.512 62.632 49.512 60.946C49.512 59.274 41.808 57.918 32.257 57.895L34.549 54.967C36.396 52.581 52.708 31.39 52.708 20.849ZM25.294 20.835C25.294 17.231 28.296 14.309 32 14.309C35.704 14.309 38.706 17.231 38.706 20.835C38.706 24.439 35.704 27.361 32 27.361C28.296 27.361 25.294 24.439 25.294 20.835Z" fill="white"/>
</svg>
