<svg width="513" height="513" viewBox="0 0 513 513" fill="none" xmlns="http://www.w3.org/2000/svg">
<path d="M159.73 409.11H38.5199C36.5799 409.11 34.7299 408.31 33.3999 406.89C32.0799 405.47 31.3999 403.57 31.5299 401.63L37.1699 319.27C37.3599 316.54 39.1199 314.16 41.6799 313.2C44.2399 312.23 47.1299 312.85 49.0799 314.78C62.4699 328.07 80.2399 335.38 99.1199 335.38C117.99 335.38 135.76 328.07 149.16 314.79C151.91 312.07 156.34 312.09 159.06 314.83C161.78 317.58 161.76 322.01 159.02 324.73C142.98 340.63 121.71 349.38 99.1299 349.38C81.3699 349.38 64.4299 343.97 50.2099 333.93L46.0199 395.11H152.2L149.08 352.89C148.79 349.03 151.69 345.68 155.54 345.39C159.37 345.11 162.75 348 163.04 351.85L166.72 401.58C166.86 403.52 166.19 405.43 164.87 406.86C163.53 408.3 161.68 409.11 159.73 409.11Z" fill="#16ADE1"/>
<path d="M99.1197 308.02C75.0097 308.02 55.3896 288.4 55.3896 264.29C55.3896 247.56 64.6996 232.55 79.6996 225.11C85.7596 222.1 92.2897 220.57 99.1197 220.57C123.23 220.57 142.85 240.19 142.85 264.3C142.85 271.12 141.33 277.66 138.32 283.72C130.86 298.71 115.84 308.02 99.1197 308.02ZM99.1197 234.57C94.4797 234.57 90.0396 235.61 85.9296 237.65C75.7196 242.71 69.3896 252.92 69.3896 264.29C69.3896 280.68 82.7197 294.02 99.1197 294.02C110.49 294.02 120.7 287.69 125.78 277.49C127.82 273.38 128.85 268.94 128.85 264.29C128.85 247.9 115.51 234.57 99.1197 234.57Z" fill="#16ADE1"/>
<path d="M99.1198 349.38C76.5298 349.38 55.2498 340.62 39.2198 324.72C22.9698 308.63 14.0298 287.17 14.0298 264.29C14.0298 217.37 52.1998 179.19 99.1198 179.19C108.72 179.19 118.16 180.78 127.17 183.93C151.44 192.39 170.99 211.95 179.48 236.24C182.62 245.25 184.22 254.69 184.22 264.29C184.22 287.17 175.27 308.64 159.01 324.73C142.98 340.63 121.71 349.38 99.1198 349.38ZM99.1198 193.19C59.9198 193.19 28.0298 225.09 28.0298 264.29C28.0298 283.4 35.5098 301.33 49.0798 314.77C62.4698 328.06 80.2398 335.38 99.1198 335.38C117.99 335.38 135.76 328.07 149.16 314.79C162.74 301.34 170.22 283.41 170.22 264.29C170.22 256.26 168.89 248.37 166.26 240.85C159.17 220.56 142.84 204.22 122.56 197.15C115.04 194.52 107.15 193.19 99.1198 193.19Z" fill="#16ADE1"/>
<path d="M99.1197 308.02C75.0097 308.02 55.3896 288.4 55.3896 264.29C55.3896 247.56 64.6996 232.55 79.6996 225.11C85.7596 222.1 92.2897 220.57 99.1197 220.57C123.23 220.57 142.85 240.19 142.85 264.3C142.85 271.12 141.33 277.66 138.32 283.72C130.86 298.71 115.84 308.02 99.1197 308.02ZM99.1197 234.57C94.4797 234.57 90.0396 235.61 85.9296 237.65C75.7196 242.71 69.3896 252.92 69.3896 264.29C69.3896 280.68 82.7197 294.02 99.1197 294.02C110.49 294.02 120.7 287.69 125.78 277.49C127.82 273.38 128.85 268.94 128.85 264.29C128.85 247.9 115.51 234.57 99.1197 234.57Z" fill="#16ADE1"/>
<path d="M172.88 245.54C172.42 245.54 171.95 245.49 171.48 245.4C169.06 244.91 167.08 243.18 166.27 240.85C159.18 220.56 142.85 204.22 122.57 197.15C120.24 196.34 118.51 194.36 118.02 191.94C117.53 189.52 118.34 187.02 120.17 185.36L195.22 117.1C198.08 114.5 202.51 114.71 205.11 117.57C207.71 120.43 207.5 124.86 204.64 127.46L137.64 188.4C153.64 196.57 166.85 209.78 175.03 225.79L251.48 141.74C234.46 134.72 221.77 119.72 217.9 101.13C217.11 97.3402 219.54 93.6402 223.33 92.8502C227.11 92.0602 230.82 94.4902 231.61 98.2802C235.08 114.97 248.67 128.25 265.42 131.33C267.92 131.79 269.97 133.57 270.79 135.98C271.61 138.39 271.05 141.05 269.34 142.93L178.08 243.26C176.71 244.73 174.83 245.54 172.88 245.54Z" fill="#16ADE1"/>
<path d="M257.85 113.43C256.22 113.43 254.58 112.86 253.26 111.71L252.31 110.89C250.85 109.62 249.98 107.8 249.91 105.87C249.84 103.94 250.57 102.06 251.93 100.69C253.24 99.3703 255.04 98.6003 256.91 98.5903C256.92 98.5903 256.92 98.5903 256.93 98.5903C258.78 98.5903 260.58 99.3003 261.9 100.61C262.06 100.77 262.22 100.92 262.38 101.07L262.71 101.39C265.45 104.02 265.58 108.36 263.02 111.16C261.63 112.67 259.75 113.43 257.85 113.43Z" fill="#16ADE1"/>
<path d="M273.16 146.03C269.68 146.03 266.21 145.71 262.86 145.09C240.24 140.93 222.58 123.67 217.89 101.13C217.11 97.3501 216.71 93.4701 216.71 89.5801C216.71 58.4601 242.03 33.1401 273.16 33.1401C277.03 33.1401 280.16 36.2701 280.16 40.1401C280.16 44.0101 277.03 47.1401 273.16 47.1401C249.75 47.1401 230.71 66.1801 230.71 89.5801C230.71 92.5101 231.01 95.4401 231.6 98.2801C235.07 114.96 248.66 128.24 265.41 131.32C267.93 131.79 270.54 132.03 273.16 132.03C278.51 132.03 283.71 131.05 288.63 129.12C298.95 125.08 307.45 116.96 311.95 106.82C314.38 101.37 315.61 95.5701 315.61 89.5701C315.61 79.8201 312.22 70.3001 306.07 62.7601C303.63 59.7701 304.07 55.3601 307.07 52.9101C310.06 50.4701 314.47 50.9101 316.92 53.9101C325.11 63.9401 329.62 76.6101 329.62 89.5701C329.62 97.5501 327.98 105.26 324.75 112.51C318.77 125.98 307.47 136.78 293.75 142.15C287.19 144.73 280.26 146.03 273.16 146.03Z" fill="#16ADE1"/>
<path d="M295.11 52.27C291.24 52.27 288.11 49.14 288.11 45.27C288.11 41.4 291.24 38.27 295.11 38.27H295.12C298.99 38.27 302.12 41.4 302.12 45.27C302.12 49.14 298.98 52.27 295.11 52.27Z" fill="#16ADE1"/>
<path d="M273.16 119.34C265.78 119.34 258.69 116.62 253.21 111.67L252.31 110.89C251.9 110.54 251.54 110.14 251.23 109.71C246.17 104.2 243.4 97.0901 243.4 89.5901C243.4 81.6501 246.49 74.1801 252.11 68.5601C252.2 68.4701 252.29 68.3801 252.39 68.3001C257.99 62.8501 265.35 59.8501 273.16 59.8501C286.33 59.8501 297.77 68.3101 301.62 80.9001C302.48 83.7001 302.92 86.6301 302.92 89.6001C302.92 97.5401 299.83 105.01 294.21 110.64C288.56 116.25 281.09 119.34 273.16 119.34ZM262.21 100.95L262.45 101.16C262.49 101.19 262.52 101.22 262.55 101.25C265.46 103.89 269.23 105.34 273.15 105.34C277.35 105.34 281.31 103.7 284.3 100.72C287.26 97.7501 288.9 93.7901 288.9 89.5801C288.9 88.0001 288.67 86.4601 288.22 84.9801C286.18 78.3101 280.12 73.8301 273.15 73.8301C268.95 73.8301 265 75.4701 262.01 78.4501C261.95 78.5101 261.88 78.5701 261.82 78.6301C258.96 81.5801 257.4 85.4601 257.4 89.5701C257.4 93.7301 259.01 97.6701 261.94 100.64C262.03 100.75 262.12 100.85 262.21 100.95Z" fill="#16ADE1"/>
<path d="M273.16 119.34C265.75 119.34 258.65 116.6 253.15 111.62C253.1 111.57 253.05 111.53 253 111.48L252.73 111.22C252.49 110.99 252.25 110.76 252.01 110.52C246.44 104.86 243.4 97.4403 243.4 89.5803C243.4 81.6403 246.49 74.1703 252.11 68.5503C252.2 68.4603 252.29 68.3703 252.39 68.2903C257.99 62.8403 265.35 59.8403 273.16 59.8403C286.33 59.8403 297.77 68.3003 301.62 80.8903C302.48 83.6903 302.92 86.6203 302.92 89.5903C302.92 97.5303 299.83 105 294.21 110.63C288.56 116.25 281.09 119.34 273.16 119.34ZM262.61 101.3C265.51 103.9 269.25 105.34 273.15 105.34C277.35 105.34 281.31 103.7 284.3 100.72C287.26 97.7503 288.9 93.7903 288.9 89.5803C288.9 88.0003 288.67 86.4603 288.22 84.9803C286.18 78.3103 280.12 73.8303 273.15 73.8303C268.95 73.8303 265 75.4703 262.01 78.4503C261.95 78.5103 261.88 78.5703 261.82 78.6303C258.96 81.5803 257.4 85.4603 257.4 89.5703C257.4 93.7303 259.01 97.6703 261.94 100.64C262.06 100.75 262.21 100.9 262.37 101.06L262.61 101.3Z" fill="#16ADE1"/>
<path d="M364.02 206.46C362.34 206.46 360.7 205.86 359.41 204.73L286.57 140.91C284.73 139.3 283.87 136.85 284.29 134.44C284.71 132.03 286.36 130.02 288.64 129.13C298.96 125.09 307.45 116.97 311.95 106.84C312.92 104.66 314.93 103.12 317.3 102.76C319.66 102.4 322.04 103.27 323.62 105.07L386.66 177.02C388.17 178.75 388.74 181.11 388.18 183.34C387.62 185.57 386 187.38 383.85 188.19C377.64 190.52 372.82 195.47 370.64 201.77C369.88 203.97 368.07 205.65 365.82 206.25C365.22 206.38 364.62 206.46 364.02 206.46ZM303.53 137.15L361.91 188.3C364.22 184.96 367.08 182.05 370.37 179.66L319.57 121.69C315.3 127.83 309.83 133.11 303.53 137.15Z" fill="#16ADE1"/>
<path d="M343.49 301.58H314.57C310.7 301.58 307.57 298.45 307.57 294.58V234.84C307.57 232.27 308.98 229.9 311.24 228.68L359.09 202.82C361.26 201.65 363.89 201.7 366 202.97C368.12 204.23 369.42 206.52 369.42 208.98C369.42 216.94 373.47 224.09 380.26 228.16C382.42 229.45 383.71 231.81 383.66 234.32C383.6 236.83 382.2 239.13 379.99 240.32L350.49 256.26V294.57C350.49 298.44 347.36 301.58 343.49 301.58ZM321.57 287.58H336.49V252.09C336.49 249.52 337.9 247.15 340.16 245.93L364.36 232.85C361.07 229.06 358.59 224.61 357.08 219.82L321.57 239.01V287.58Z" fill="#16ADE1"/>
<path d="M468.87 301.58H439.95C436.08 301.58 432.95 298.45 432.95 294.58V256.27L403.47 240.34C401.26 239.15 399.86 236.86 399.8 234.34C399.74 231.83 401.04 229.48 403.19 228.18C409.97 224.1 414.02 216.94 414.02 209.04C414.02 206.57 415.32 204.26 417.44 203C419.56 201.74 422.18 201.65 424.35 202.83L472.2 228.69C474.46 229.91 475.87 232.28 475.87 234.85V294.59C475.87 298.44 472.74 301.58 468.87 301.58ZM446.96 287.58H461.88V239.02L426.37 219.83C424.87 224.63 422.38 229.07 419.1 232.87L443.29 245.94C445.55 247.16 446.96 249.53 446.96 252.1V287.58Z" fill="#16ADE1"/>
<path d="M391.73 245.33C385.14 245.33 378.68 243.54 373.05 240.16C362.18 233.64 355.42 221.71 355.42 209.04C355.43 204.96 356.1 201 357.4 197.2C360.96 186.93 368.8 178.87 378.93 175.07C382.99 173.52 387.31 172.73 391.73 172.73C411.7 172.73 427.98 188.99 428.03 208.97V208.98V209.04C428.03 221.71 421.28 233.64 410.41 240.17C404.76 243.55 398.31 245.33 391.73 245.33ZM391.73 186.73C389.02 186.73 386.37 187.21 383.88 188.16C377.64 190.5 372.82 195.45 370.64 201.75C369.85 204.08 369.43 206.53 369.42 209C369.42 216.94 373.47 224.08 380.26 228.15C383.72 230.23 387.68 231.32 391.73 231.32C395.78 231.32 399.74 230.23 403.21 228.15C409.98 224.08 414.03 216.92 414.03 209.02L421.03 208.96L414.03 208.97C414 196.72 404 186.73 391.73 186.73Z" fill="#16ADE1"/>
<path d="M439.96 368.88H343.5C339.63 368.88 336.5 365.75 336.5 361.88V274.91C336.5 271.04 339.63 267.91 343.5 267.91H439.96C443.83 267.91 446.96 271.04 446.96 274.91V361.88C446.96 365.75 443.82 368.88 439.96 368.88ZM350.49 354.88H432.95V281.91H350.49V354.88Z" fill="#16ADE1"/>
<path d="M291.48 412.85C291.02 412.85 290.56 412.8 290.11 412.71C289.67 412.62 289.23 412.48 288.8 412.31C288.38 412.13 287.98 411.92 287.6 411.67C287.21 411.41 286.86 411.12 286.53 410.8C285.23 409.49 284.48 407.69 284.48 405.85C284.48 405.39 284.53 404.93 284.62 404.48C284.71 404.03 284.84 403.59 285.02 403.17C285.19 402.75 285.41 402.34 285.66 401.96C285.92 401.58 286.21 401.22 286.53 400.9C286.86 400.57 287.21 400.28 287.6 400.03C287.98 399.77 288.38 399.56 288.8 399.38C289.23 399.21 289.67 399.07 290.11 398.98C292.39 398.53 294.81 399.27 296.43 400.9C296.76 401.22 297.05 401.58 297.3 401.96C297.56 402.34 297.77 402.75 297.95 403.17C298.12 403.59 298.26 404.03 298.35 404.48C298.44 404.93 298.48 405.39 298.48 405.85C298.48 407.69 297.74 409.49 296.43 410.8C295.13 412.1 293.32 412.85 291.48 412.85Z" fill="#16ADE1"/>
<path d="M491.97 479.86H291.48C287.61 479.86 284.48 476.73 284.48 472.86V426.68C284.48 422.81 287.61 419.68 291.48 419.68C295.35 419.68 298.48 422.81 298.48 426.68V465.86H484.96V368.89H298.48V385.02C298.48 388.89 295.35 392.02 291.48 392.02C287.61 392.02 284.48 388.89 284.48 385.02V361.89C284.48 358.02 287.61 354.89 291.48 354.89H491.96C495.83 354.89 498.96 358.02 498.96 361.89V472.86C498.97 476.72 495.83 479.86 491.97 479.86Z" fill="#16ADE1"/>
<path d="M177.22 479.86H21.0298C17.1598 479.86 14.0298 476.73 14.0298 472.86V402.11C14.0298 398.24 17.1598 395.11 21.0298 395.11H177.22C181.09 395.11 184.22 398.24 184.22 402.11V472.86C184.22 476.72 181.09 479.86 177.22 479.86ZM28.0298 465.86H170.22V409.11H28.0298V465.86Z" fill="#16ADE1"/>
</svg>
