<svg width="33" height="33" viewBox="0 0 33 33" fill="none" xmlns="http://www.w3.org/2000/svg">
<g clip-path="url(#clip0_190_506)">
<path d="M32.2268 16.7729C32.2268 16.7729 25.1348 15.3799 21.6198 18.8939C19.0138 21.4999 19.1068 26.0659 19.3288 28.2569L16.7928 30.7929C16.4018 31.1839 16.4018 31.8169 16.7928 32.2069C17.1838 32.5979 17.8168 32.5979 18.2068 32.2069L20.7428 29.6709C22.9328 29.8929 27.4998 29.9849 30.1058 27.3789C33.6208 23.8639 32.2268 16.7729 32.2268 16.7729ZM23.0348 20.2039C24.9208 18.3179 28.4688 18.2459 30.4368 18.4059L21.2898 27.4999H21.2808C21.1038 25.4999 21.2528 21.9849 23.0348 20.2039Z" fill="#16ADE1"/>
<path d="M4.874 21.748C5.888 22.588 6.5 23.712 6.5 24.918V28.5C6.5 29.605 7.395 30.5 8.5 30.5H9.087C9.782 31.5 11.03 32.498 12.5 32.5C13.97 32.498 15.218 31.5 15.913 30.5H16.5V29.899C16.5 29.876 16.527 29.857 16.535 29.834L16.5 29.822V28.5H8.5V26.5H16.5V24.5H8.5V24.918C8.5 23.013 7.532 21.344 6.146 20.205C3.919 18.367 2.5 15.601 2.5 12.5C2.5 9.741 3.62 7.247 5.433 5.432C7.247 3.62 9.741 2.5 12.5 2.5C13.206 2.5 13.931 2.573 14.669 2.729C18.499 3.528 21.603 6.719 22.319 10.57C22.441 11.226 22.5 11.87 22.5 12.5C22.5 13.474 22.36 14.414 22.099 15.302L24.018 15.865C24.332 14.797 24.5 13.667 24.5 12.5C24.5 11.746 24.43 10.978 24.284 10.201C23.403 5.537 19.729 1.757 15.081 0.771C14.209 0.588 13.345 0.5 12.5 0.5C5.88 0.502 0.502 5.88 0.5 12.5C0.499 16.221 2.209 19.552 4.874 21.748Z" fill="#16ADE1"/>
<path d="M4.5 12.5C4.5 13.052 4.948 13.5 5.5 13.5C6.052 13.5 6.5 13.052 6.5 12.5C6.5 10.844 7.171 9.35 8.26 8.26C9.35 7.171 10.844 6.5 12.5 6.5C13.052 6.5 13.5 6.052 13.5 5.5C13.5 4.948 13.052 4.5 12.5 4.5C8.086 4.502 4.502 8.086 4.5 12.5Z" fill="#16ADE1"/>
</g>
<defs>
<clipPath id="clip0_190_506">
<rect width="32.001" height="32" fill="white" transform="translate(0.5 0.5)"/>
</clipPath>
</defs>
</svg>
