<svg width="25" height="25" viewBox="0 0 25 25" fill="none" xmlns="http://www.w3.org/2000/svg">
<path d="M6.5 9.50981V9.53544C6.6633 9.51209 6.83024 9.5 7 9.5H18C18.177 9.5 18.3509 9.51313 18.5208 9.53848V9.51724L18.2107 9.1022C17.9275 8.7232 17.4822 8.5 17.0091 8.5H8.00488C7.53069 8.5 7.08441 8.72422 6.80138 9.10469L6.5 9.50981ZM6.5 8.00364C6.92864 7.68057 7.45552 7.5 8.00488 7.5H10.5V3.51432C8.25002 3.76304 6.5 5.67057 6.5 7.98685V8.00364ZM11.5 7.5H13.5V2.5H11.5V7.5ZM14.5 7.5H17.0091C17.5613 7.5 18.0909 7.68247 18.5208 8.00882C18.5148 5.68645 16.7576 3.77573 14.5 3.52734V7.5ZM20.8102 10.9133C21.2436 11.496 21.5 12.218 21.5 13V15C21.5 16.77 20.1861 18.2331 18.4804 18.4673C18.2433 21.2861 15.8802 23.5 13 23.5H12C9.11983 23.5 6.75674 21.2861 6.51957 18.4673C4.81389 18.2331 3.5 16.77 3.5 15V13C3.5 12.0979 3.84126 11.2756 4.40173 10.655L5.5 9.17864V7.98685C5.5 5.11783 7.69675 2.76189 10.5 2.50927V2C10.5 1.72386 10.7239 1.5 11 1.5H14C14.2761 1.5 14.5 1.72386 14.5 2V2.52234C17.3148 2.77502 19.5208 5.14028 19.5208 8.0208V9.18492L20.7877 10.8806C20.7957 10.8913 20.8032 10.9022 20.8102 10.9133ZM4.85014 11.7233C4.62774 12.097 4.5 12.5336 4.5 13V15C4.5 16.3807 5.61929 17.5 7 17.5H7.864C8.9404 17.5 9.90389 16.8323 10.2818 15.8244L10.6807 14.7608C10.9651 14.0024 11.6901 13.5 12.5 13.5C13.3099 13.5 14.0349 14.0024 14.3193 14.7608L14.7182 15.8244C15.0961 16.8323 16.0596 17.5 17.136 17.5H18C19.3807 17.5 20.5 16.3807 20.5 15V13C20.5 11.6193 19.3807 10.5 18 10.5H7C6.27916 10.5 5.62958 10.8051 5.17333 11.2932L4.88271 11.6838C4.87241 11.6977 4.86154 11.7108 4.85014 11.7233ZM17.4725 18.5H17.136C16.1808 18.5 15.2896 18.1209 14.6342 17.4818C14.5915 17.4937 14.5465 17.5 14.5 17.5H10.5C10.4535 17.5 10.4085 17.4937 10.3658 17.4818C9.71038 18.1209 8.81924 18.5 7.864 18.5H7.52746C7.77619 20.75 9.68372 22.5 12 22.5H13C15.3163 22.5 17.2238 20.75 17.4725 18.5ZM13.922 16.5C13.8704 16.395 13.8235 16.2868 13.7818 16.1756L13.383 15.1119C13.2449 14.7438 12.8931 14.5 12.5 14.5C12.1069 14.5 11.7551 14.7438 11.617 15.1119L11.2182 16.1756C11.1765 16.2868 11.1296 16.395 11.078 16.5H13.922Z" fill="#16ADE1"/>
</svg>
