<svg width="90" height="90" viewBox="0 0 90 90" fill="none" xmlns="http://www.w3.org/2000/svg">
<g clip-path="url(#clip0_193_537)">
<path d="M90 43.841C90 68.054 70.221 87.682 45.818 87.682C38.071 87.682 30.793 85.702 24.461 82.227L0 90L7.975 66.478C3.952 59.872 1.635 52.124 1.635 43.841C1.635 19.628 21.416 0 45.818 0C70.223 0 90 19.628 90 43.841ZM45.818 6.982C25.334 6.982 8.672 23.517 8.672 43.841C8.672 51.906 11.301 59.375 15.748 65.451L11.107 79.14L25.382 74.603C31.247 78.454 38.273 80.7 45.819 80.7C66.3 80.7 82.965 64.167 82.965 43.843C82.965 23.519 66.301 6.982 45.818 6.982ZM68.129 53.938C67.856 53.491 67.135 53.221 66.053 52.684C64.969 52.147 59.643 49.546 58.653 49.189C57.66 48.831 56.936 48.651 56.215 49.726C55.494 50.802 53.418 53.221 52.785 53.938C52.153 54.657 51.522 54.747 50.438 54.209C49.356 53.672 45.867 52.536 41.73 48.876C38.511 46.028 36.337 42.512 35.705 41.435C35.074 40.36 35.639 39.779 36.18 39.244C36.668 38.762 37.264 37.989 37.805 37.362C38.348 36.734 38.528 36.287 38.887 35.569C39.25 34.852 39.069 34.225 38.797 33.686C38.527 33.149 36.359 27.861 35.457 25.709C34.555 23.559 33.654 23.917 33.021 23.917C32.39 23.917 31.667 23.827 30.945 23.827C30.223 23.827 29.049 24.096 28.056 25.171C27.064 26.247 24.267 28.847 24.267 34.134C24.267 39.422 28.146 44.531 28.689 45.247C29.23 45.963 36.179 57.167 47.189 61.47C58.2 65.771 58.2 64.336 60.186 64.156C62.17 63.977 66.592 61.557 67.498 59.049C68.398 56.537 68.398 54.386 68.129 53.938Z" fill="white"/>
</g>
<defs>
<clipPath id="clip0_193_537">
<rect width="90" height="90" fill="white"/>
</clipPath>
</defs>
</svg>
